# File created by Blade
# Date/Time:  Fri Jan 16 14:33:41 2015
# Frame Rate: 120.000 fps
#------------------------------------------------------
:FULLY-SPECIFIED
:DEGREES
1379
root 18.928211 35.710164 -24.078695 -171.247509 -9.879136 -179.496609
Spine -19.970030 -0.539441 -3.620556
Head 9.335375 -19.210707 2.494942
LeftShoulder -4.360126 -16.648445 -6.920744
LeftArm -15.040835 17.511907 -71.769752
LeftForeArm 2.321262 -0.000000 8.642991
LeftHand -1.359284 -0.000000 -1.138749
LeftHandThumb1 -26.253704 0.000000 33.147579
RightShoulder -6.424992 3.851472 -3.280443
RightArm 26.644407 74.986136 25.393163
RightForeArm -11.021764 0.000000 87.608606
RightHand 6.289127 -0.000000 -10.104584
RightHandThumb1 -24.326973 -0.000000 -32.862282
LeftUpLeg -2.064127 4.835171 0.464010
LeftLeg -5.178306 -0.000000 0.000000
LeftFoot -18.754531 23.590667 -13.614107
LeftToeBase 25.716704 -0.000000 -0.000000
RightUpLeg -1.074572 -16.764806 3.414305
RightLeg -3.831499 -0.000000 0.000000
RightFoot -21.533922 -26.406237 17.464560
RightToeBase 22.273263 -0.000000 -0.000000
1380
root 18.926411 35.710379 -24.075744 -171.175890 -9.913510 -179.496417
Spine -20.004815 -0.806275 -3.526564
Head 9.239884 -18.962513 2.529391
LeftShoulder -4.431928 -16.682941 -6.847660
LeftArm -15.097437 17.626299 -71.815537
LeftForeArm 2.172183 -0.000000 8.737871
LeftHand -1.325448 0.000000 -1.397916
LeftHandThumb1 -26.253704 0.000000 33.147579
RightShoulder -6.802150 3.703475 -3.265389
RightArm 24.781058 75.212699 23.591211
RightForeArm -11.085566 -0.000000 87.631553
RightHand 6.266995 0.000000 -9.870114
RightHandThumb1 -24.326973 -0.000000 -32.862282
LeftUpLeg -2.137666 4.818062 0.458084
LeftLeg -5.192474 -0.000000 0.000000
LeftFoot -18.727370 23.574497 -13.589871
LeftToeBase 25.715208 -0.000000 -0.000000
RightUpLeg -1.147238 -16.770510 3.434656
RightLeg -3.836758 -0.000000 0.000000
RightFoot -21.531527 -26.401865 17.495543
RightToeBase 22.260030 -0.000000 -0.000000
1381
root 18.924028 35.710362 -24.073486 -171.111689 -9.951283 -179.492711
Spine -20.021299 -1.096040 -3.400190
Head 9.173381 -18.510405 2.593716
LeftShoulder -4.556820 -16.694473 -6.793271
LeftArm -15.077716 17.575593 -71.795093
LeftForeArm 2.179570 0.000000 8.754826
LeftHand -1.326616 -0.000000 -1.244680
LeftHandThumb1 -26.253704 0.000000 33.147579
RightShoulder -7.311230 3.278995 -3.330988
RightArm 24.055648 75.561969 23.038228
RightForeArm -11.144660 -0.000000 87.677986
RightHand 6.270816 -0.000000 -9.860369
RightHandThumb1 -24.326973 -0.000000 -32.862282
LeftUpLeg -2.205391 4.807494 0.455024
LeftLeg -5.203190 -0.000000 0.000000
LeftFoot -18.706904 23.555950 -13.577730
LeftToeBase 25.698383 -0.000000 -0.000000
RightUpLeg -1.210183 -16.775502 3.458730
RightLeg -3.844382 -0.000000 0.000000
RightFoot -21.542224 -26.419836 17.518880
RightToeBase 22.180708 -0.000000 -0.000000
1382
root 18.921823 35.710605 -24.071280 -171.059176 -9.978160 -179.498320
Spine -20.020059 -1.352084 -3.314993
Head 9.072065 -18.197872 2.668582
LeftShoulder -4.643947 -16.688644 -6.736213
LeftArm -15.033285 17.444978 -71.749645
LeftForeArm 2.192196 -0.000000 8.805677
LeftHand -1.437041 -0.000000 -1.017048
LeftHandThumb1 -26.253704 0.000000 33.147579
RightShoulder -7.661557 3.102390 -3.361434
RightArm 21.768154 75.793641 20.920280
RightForeArm -11.180630 -0.000000 87.777499
RightHand 6.151671 -0.000000 -9.529498
RightHandThumb1 -24.326973 -0.000000 -32.862282
LeftUpLeg -2.255220 4.799148 0.443414
LeftLeg -5.221092 -0.000000 0.000000
LeftFoot -18.692632 23.538429 -13.583797
LeftToeBase 25.692865 -0.000000 -0.000000
RightUpLeg -1.255547 -16.779424 3.464945
RightLeg -3.856835 -0.000000 0.000000
RightFoot -21.549580 -26.425805 17.541745
RightToeBase 22.213560 -0.000000 -0.000000
1383
root 18.919410 35.711312 -24.068978 -171.003681 -10.010929 -179.502937
Spine -20.029803 -1.629988 -3.208719
Head 8.992079 -17.868696 2.700414
LeftShoulder -4.775469 -16.661643 -6.662075
LeftArm -14.945181 17.436048 -71.738170
LeftForeArm 2.117281 -0.000000 8.787264
LeftHand -1.488327 -0.000000 -0.981002
LeftHandThumb1 -26.253704 0.000000 33.147579
RightShoulder -8.046719 2.800114 -3.397187
RightArm 20.014894 76.079576 19.318625
RightForeArm -11.394498 0.000000 87.829448
RightHand 6.105186 -0.000000 -9.737759
RightHandThumb1 -24.326973 -0.000000 -32.862282
LeftUpLeg -2.312612 4.779160 0.434016
LeftLeg -5.230529 -0.000000 0.000000
LeftFoot -18.674122 23.519888 -13.593713
LeftToeBase 25.682991 -0.000000 -0.000000
RightUpLeg -1.307553 -16.776146 3.474737
RightLeg -3.865470 -0.000000 0.000000
RightFoot -21.557042 -26.443208 17.560544
RightToeBase 22.219170 -0.000000 -0.000000
1384
root 18.916393 35.712279 -24.066800 -170.951416 -10.036824 -179.510446
Spine -20.051201 -1.887633 -3.095080
Head 8.957246 -17.538447 2.679521
LeftShoulder -4.889223 -16.648491 -6.612790
LeftArm -14.887890 17.372333 -71.705641
LeftForeArm 2.125122 -0.000000 8.770744
LeftHand -1.473104 -0.000000 -1.003049
LeftHandThumb1 -26.253704 0.000000 33.147579
RightShoulder -8.477932 2.319776 -3.454516
RightArm 18.828987 76.494877 18.349214
RightForeArm -11.806995 0.000000 87.957007
RightHand 5.805038 -0.000000 -9.797859
RightHandThumb1 -24.326973 -0.000000 -32.862282
LeftUpLeg -2.364706 4.760685 0.421926
LeftLeg -5.240317 -0.000000 0.000000
LeftFoot -18.657539 23.508918 -13.592258
LeftToeBase 25.711716 -0.000000 -0.000000
RightUpLeg -1.359752 -16.766489 3.479153
RightLeg -3.865954 -0.000000 0.000000
RightFoot -21.566248 -26.466722 17.581341
RightToeBase 22.229955 -0.000000 -0.000000
1385
root 18.913525 35.712590 -24.065060 -170.898490 -10.053508 -179.513206
Spine -20.045635 -2.217753 -2.946829
Head 8.822557 -17.138352 2.681936
LeftShoulder -5.089625 -16.650962 -6.542299
LeftArm -14.864884 17.314661 -71.670754
LeftForeArm 2.084710 -0.000000 8.864265
LeftHand -1.554327 0.000000 -0.913509
LeftHandThumb1 -26.253704 0.000000 33.147579
RightShoulder -8.754056 2.228262 -3.529916
RightArm 16.717674 76.657768 16.442791
RightForeArm -12.266259 -0.000000 88.097449
RightHand 5.773137 -0.000000 -9.593862
RightHandThumb1 -24.326973 -0.000000 -32.862282
LeftUpLeg -2.418710 4.766060 0.412014
LeftLeg -5.244861 -0.000000 0.000000
LeftFoot -18.650096 23.479604 -13.594797
LeftToeBase 25.711099 -0.000000 -0.000000
RightUpLeg -1.409935 -16.748478 3.486452
RightLeg -3.873636 -0.000000 0.000000
RightFoot -21.570834 -26.493208 17.611335
RightToeBase 22.265546 -0.000000 -0.000000
1386
root 18.909603 35.713690 -24.062400 -170.847018 -10.079852 -179.522092
Spine -20.071073 -2.517212 -2.819500
Head 8.793791 -16.771667 2.664395
LeftShoulder -5.214217 -16.641057 -6.500904
LeftArm -14.844452 17.201584 -71.625238
LeftForeArm 2.129928 -0.000000 8.884109
LeftHand -1.608909 -0.000000 -0.920130
LeftHandThumb1 -26.253704 0.000000 33.147579
RightShoulder -9.014572 1.997782 -3.608704
RightArm 14.370019 76.889949 14.347655
RightForeArm -12.724140 -0.000000 88.255723
RightHand 5.705551 -0.000000 -9.522662
RightHandThumb1 -24.326973 -0.000000 -32.862282
LeftUpLeg -2.473870 4.753099 0.395173
LeftLeg -5.249347 -0.000000 0.000000
LeftFoot -18.625501 23.463395 -13.586069
LeftToeBase 25.718931 -0.000000 -0.000000
RightUpLeg -1.463651 -16.735156 3.486377
RightLeg -3.866269 -0.000000 0.000000
RightFoot -21.582954 -26.490919 17.660915
RightToeBase 22.165779 -0.000000 -0.000000
1387
root 18.905628 35.714957 -24.061315 -170.804096 -10.102321 -179.527726
Spine -20.075888 -2.827471 -2.695444
Head 8.734556 -16.379836 2.698869
LeftShoulder -5.399269 -16.651649 -6.431523
LeftArm -14.815093 17.096784 -71.588915
LeftForeArm 2.217139 -0.000000 8.896265
LeftHand -1.594113 -0.000000 -0.903078
LeftHandThumb1 -26.253704 0.000000 33.147579
RightShoulder -9.272060 2.239940 -3.756031
RightArm 11.606654 76.650276 11.848004
RightForeArm -13.261211 0.000000 88.386256
RightHand 5.498004 0.000000 -9.598502
RightHandThumb1 -24.326973 -0.000000 -32.862282
LeftUpLeg -2.518328 4.754267 0.380429
LeftLeg -5.254380 -0.000000 0.000000
LeftFoot -18.610240 23.441321 -13.597594
LeftToeBase 25.695284 -0.000000 -0.000000
RightUpLeg -1.509700 -16.740783 3.487786
RightLeg -3.861141 -0.000000 0.000000
RightFoot -21.584189 -26.490243 17.676480
RightToeBase 22.164758 -0.000000 -0.000000
1388
root 18.901825 35.716356 -24.059921 -170.751250 -10.125443 -179.534380
Spine -20.078639 -3.151491 -2.560125
Head 8.669375 -15.811969 2.766991
LeftShoulder -5.620921 -16.675064 -6.368720
LeftArm -14.798075 17.032385 -71.545139
LeftForeArm 2.270205 -0.000000 8.956268
LeftHand -1.618047 0.000000 -0.896630
LeftHandThumb1 -26.253704 0.000000 33.147579
RightShoulder -9.524027 1.627877 -3.797532
RightArm 9.681469 77.334429 10.247140
RightForeArm -13.356851 -0.000000 88.548375
RightHand 5.850420 -0.000000 -9.038199
RightHandThumb1 -24.326973 -0.000000 -32.862282
LeftUpLeg -2.578077 4.749426 0.366670
LeftLeg -5.247441 -0.000000 0.000000
LeftFoot -18.596218 23.409711 -13.611995
LeftToeBase 25.662254 -0.000000 -0.000000
RightUpLeg -1.562141 -16.742626 3.492539
RightLeg -3.861909 -0.000000 0.000000
RightFoot -21.588528 -26.501940 17.720737
RightToeBase 22.143286 -0.000000 -0.000000
1389
root 18.896934 35.717596 -24.058924 -170.689502 -10.146370 -179.544269
Spine -20.117961 -3.461753 -2.435305
Head 8.594733 -15.523439 2.752969
LeftShoulder -5.747971 -16.715155 -6.314231
LeftArm -14.857250 16.773691 -71.493753
LeftForeArm 2.429852 -0.000000 8.997686
LeftHand -1.607609 -0.000000 -0.909276
LeftHandThumb1 -26.253704 0.000000 33.147579
RightShoulder -9.762734 1.829450 -3.976059
RightArm 6.946303 77.173456 7.862669
RightForeArm -13.445032 0.000000 88.676601
RightHand 6.071672 -0.000000 -8.923022
RightHandThumb1 -24.326973 -0.000000 -32.862282
LeftUpLeg -2.644050 4.765857 0.343536
LeftLeg -5.243824 -0.000000 0.000000
LeftFoot -18.581180 23.366993 -13.620139
LeftToeBase 25.684385 -0.000000 -0.000000
RightUpLeg -1.627681 -16.740247 3.494733
RightLeg -3.851509 -0.000000 0.000000
RightFoot -21.602211 -26.520813 17.726962
RightToeBase 22.192307 -0.000000 -0.000000
